<svg width="273" height="273" viewBox="0 0 273 273" fill="none" xmlns="http://www.w3.org/2000/svg">
<rect width="273" height="273" rx="28" fill="black"/>
<path d="M130.636 136.455C130.636 146.606 128.712 155.242 124.864 162.364C121.045 169.485 115.833 174.924 109.227 178.682C102.652 182.409 95.2576 184.273 87.0455 184.273C78.7727 184.273 71.3485 182.394 64.7727 178.636C58.197 174.879 53 169.439 49.1818 162.318C45.3636 155.197 43.4545 146.576 43.4545 136.455C43.4545 126.303 45.3636 117.667 49.1818 110.545C53 103.424 58.197 98 64.7727 94.2727C71.3485 90.5151 78.7727 88.6364 87.0455 88.6364C95.2576 88.6364 102.652 90.5151 109.227 94.2727C115.833 98 121.045 103.424 124.864 110.545C128.712 117.667 130.636 126.303 130.636 136.455ZM110.682 136.455C110.682 129.879 109.697 124.333 107.727 119.818C105.788 115.303 103.045 111.879 99.5 109.545C95.9545 107.212 91.803 106.045 87.0455 106.045C82.2879 106.045 78.1364 107.212 74.5909 109.545C71.0455 111.879 68.2879 115.303 66.3182 119.818C64.3788 124.333 63.4091 129.879 63.4091 136.455C63.4091 143.03 64.3788 148.576 66.3182 153.091C68.2879 157.606 71.0455 161.03 74.5909 163.364C78.1364 165.697 82.2879 166.864 87.0455 166.864C91.803 166.864 95.9545 165.697 99.5 163.364C103.045 161.03 105.788 157.606 107.727 153.091C109.697 148.576 110.682 143.03 110.682 136.455ZM206.943 120C206.307 117.788 205.413 115.833 204.261 114.136C203.11 112.409 201.701 110.955 200.034 109.773C198.398 108.561 196.519 107.636 194.398 107C192.307 106.364 189.989 106.045 187.443 106.045C182.686 106.045 178.504 107.227 174.898 109.591C171.322 111.955 168.534 115.394 166.534 119.909C164.534 124.394 163.534 129.879 163.534 136.364C163.534 142.848 164.519 148.364 166.489 152.909C168.458 157.455 171.246 160.924 174.852 163.318C178.458 165.682 182.716 166.864 187.625 166.864C192.08 166.864 195.883 166.076 199.034 164.5C202.216 162.894 204.64 160.636 206.307 157.727C208.004 154.818 208.852 151.379 208.852 147.409L212.852 148H188.852V133.182H227.807V144.909C227.807 153.091 226.08 160.121 222.625 166C219.17 171.848 214.413 176.364 208.352 179.545C202.292 182.697 195.352 184.273 187.534 184.273C178.807 184.273 171.14 182.348 164.534 178.5C157.928 174.621 152.777 169.121 149.08 162C145.413 154.848 143.58 146.364 143.58 136.545C143.58 129 144.67 122.273 146.852 116.364C149.064 110.424 152.155 105.394 156.125 101.273C160.095 97.1515 164.716 94.0151 169.989 91.8636C175.261 89.7121 180.973 88.6364 187.125 88.6364C192.398 88.6364 197.307 89.4091 201.852 90.9545C206.398 92.4697 210.428 94.6212 213.943 97.4091C217.489 100.197 220.383 103.515 222.625 107.364C224.867 111.182 226.307 115.394 226.943 120H206.943Z" fill="white"/>
</svg>
